PathFileType	4	(X/Y/Z)	/Users/itak/Documents/Research/Walk-IL/dataset/trc/00031_00004.trc
DataRate	CameraRate	NumFrames	NumMarkers	Units	OrigDataRate	OrigDataStartFrame	OrigNumFrames
100.000000	100.000000	4	53	mm	100.000000	573	764
Frame#	Time	RPSI			LPSI			L3			STRN			T10			C7			CLAV			RBAK			LBAK			LSHO			LUPA			LAEL			LAOL			LWTS			LWPS			LFRA			LIFD			LHPS			LHTS			RSHO			RUPA			RAEL			RAOL			RWTS			RWPS			RFRA			RIFD			RHTS			RHPS			RBHD			LFHD			RFHD			LBHD			LHIP			RHIP			RASI			LASI			LKNE			LTHI			LANK			LTIP			LTOE			LMT1			LMT5			LHEE			RKNE			RTHI			RANK			RTIP			RTOE			RMT1			RMT5			RHEE			
		X1	Y1	Z1	X2	Y2	Z2	X3	Y3	Z3	X4	Y4	Z4	X5	Y5	Z5	X6	Y6	Z6	X7	Y7	Z7	X8	Y8	Z8	X9	Y9	Z9	X10	Y10	Z10	X11	Y11	Z11	X12	Y12	Z12	X13	Y13	Z13	X14	Y14	Z14	X15	Y15	Z15	X16	Y16	Z16	X17	Y17	Z17	X18	Y18	Z18	X19	Y19	Z19	X20	Y20	Z20	X21	Y21	Z21	X22	Y22	Z22	X23	Y23	Z23	X24	Y24	Z24	X25	Y25	Z25	X26	Y26	Z26	X27	Y27	Z27	X28	Y28	Z28	X29	Y29	Z29	X30	Y30	Z30	X31	Y31	Z31	X32	Y32	Z32	X33	Y33	Z33	X34	Y34	Z34	X35	Y35	Z35	X36	Y36	Z36	X37	Y37	Z37	X38	Y38	Z38	X39	Y39	Z39	X40	Y40	Z40	X41	Y41	Z41	X42	Y42	Z42	X43	Y43	Z43	X44	Y44	Z44	X45	Y45	Z45	X46	Y46	Z46	X47	Y47	Z47	X48	Y48	Z48	X49	Y49	Z49	X50	Y50	Z50	X51	Y51	Z51	X52	Y52	Z52	X53	Y53	Z53	

574	5.73	767.9808959960938	1053.64306640625	637.1738891601562	872.3505249023438	1051.67919921875	764.1453857421875	831.1239013671875	1117.918823242188	700.8353881835938	649.2646484375	1306.556396484375	828.5807495117188	851.4549560546875	1262.752807617188	683.02294921875	808.0728149414062	1530.096801757812	717.7427368164062	682.77978515625	1432.547119140625	804.7022094726562	811.7017822265625	1391.458251953125	622.0043334960938	881.5723266601562	1494.278442382812	784.9791259765625	842.6712646484375	1499.896850585938	904.6577758789062	926.9132080078125	1383.17529296875	944.482666015625	974.6939086914062	1171.287475585938	956.7836303710938	963.6681518554688	1161.807250976562	851.7949829101562	897.6378784179688	909.0447387695312	954.1782836914062	986.5227661132812	904.0816040039062	947.6231079101562	981.8024291992188	1055.035400390625	966.3832397460938	887.6576538085938	719.5878295898438	943.7210693359375	968.7542724609375	810.6358032226562	960.9692993164062	899.5595092773438	814.3770751953125	973.5145263671875	647.69970703125	1505.045043945312	618.8746948242188	622.5174560546875	1435.438842773438	551.8145751953125	644.4292602539062	1167.313720703125	502.0612182617188	700.7196044921875	1141.31787109375	580.9185791015625	512.1257934570312	979.8643798828125	681.2440185546875	506.7306823730469	935.1632690429688	599.3110961914062	609.5845336914062	1091.630249023438	513.2294311523438	457.8896789550781	825.2131958007812	770.5896606445312	449.5641174316406	897.1426391601562	729.3480224609375	451.9590148925781	861.630615234375	662.9263305664062	723.0465087890625	1717.571044921875	830.7573852539062	526.5608520507812	1658.6689453125	755.0089721679688	550.4217529296875	1666.548828125	850.4993286132812	684.6470947265625	1701.363403320312	692.4324340820312	860.1823120117188	955.1695556640625	917.8475341796875	616.5599365234375	937.2577514648438	633.9412841796875	583.0632934570312	978.38525390625	752.812255859375	731.5982055664062	1006.441101074219	931.6962280273438	685.1788940429688	535.1619873046875	1008.793640136719	764.4691772460938	663.8189086914062	996.2207641601562	909.9495239257812	82.99662017822266	949.3473510742188	825.0574951171875	320.0842895507812	982.2608032226562	705.435546875	48.21083068847656	1032.201293945312	739.1815185546875	57.5629997253418	982.5775146484375	828.2040405273438	64.66808319091797	1040.377807617188	930.3479614257812	93.11930847167969	867.1285400390625	654.4954833984375	505.8786010742188	733.3255004882812	604.38671875	769.515380859375	671.95263671875	814.0850219726562	37.90152740478516	711.3672485351562	685.5723266601562	381.0469055175781	730.5078125	659.54443359375	38.85082626342773	888.91650390625	726.4683227539062	42.45373916625977	872.6585083007812	683.4979248046875	39.91326904296875	785.7800903320312	884.086669921875	38.8764762878418	712.356201171875	
575	5.74	764.8969116210938	1053.258544921875	642.4268188476562	867.51123046875	1051.304931640625	770.9441528320312	827.219482421875	1117.495849609375	706.960205078125	643.8241577148438	1306.363403320312	832.4160766601562	847.5283813476562	1262.391845703125	689.1775512695312	804.1414184570312	1529.784912109375	723.5037841796875	677.8272094726562	1432.356567382812	809.0942993164062	808.5338134765625	1391.278686523438	627.6602783203125	876.9124145507812	1493.690795898438	791.424072265625	836.8786010742188	1499.25244140625	910.7097778320312	920.4300537109375	1382.22216796875	951.1947021484375	967.5348510742188	1170.2119140625	963.6322631835938	957.3582763671875	1160.835693359375	858.55029296875	890.0790405273438	908.0792236328125	960.1198120117188	979.01904296875	903.0011596679688	954.2398681640625	974.3788452148438	1053.935668945312	973.1484375	880.6612548828125	718.088134765625	948.722412109375	961.056640625	809.566650390625	967.3367919921875	891.708251953125	813.4017944335938	979.0714111328125	644.7579345703125	1505.255249023438	622.9349365234375	620.1022338867188	1435.7099609375	555.4757080078125	641.9585571289062	1167.463134765625	505.8712158203125	697.5970458984375	1141.364135742188	585.16455078125	507.6409301757812	981.2218627929688	684.746826171875	502.3008117675781	936.2037353515625	603.1156005859375	606.677978515625	1091.889038085938	517.0157470703125	452.484375	827.0178833007812	774.3157958984375	444.599853515625	898.8756713867188	732.8953247070312	447.1055297851562	863.1649169921875	666.5360107421875	718.5506591796875	1717.204956054688	835.8362426757812	522.5	1658.855834960938	758.7889404296875	545.6815185546875	1666.596435546875	854.3848876953125	681.0546875	1701.262451171875	697.2603759765625	852.7930297851562	955.0166015625	924.7286987304688	613.5537109375	937.0546875	636.832275390625	578.2252197265625	978.1405639648438	755.2197265625	724.1368408203125	1006.449401855469	936.3360595703125	673.045654296875	536.981201171875	1014.08154296875	753.9183959960938	664.6556396484375	1002.728149414062	885.6139526367188	77.84876251220703	969.697265625	807.2736206054688	318.08740234375	995.4675903320312	677.0663452148438	50.1708984375	1045.400756835938	712.9059448242188	57.81793975830078	996.9285278320312	800.0324096679688	63.23910903930664	1057.931762695312	909.353271484375	86.11009216308594	888.126220703125	652.4544067382812	505.3660888671875	734.4901733398438	601.697998046875	769.1209716796875	674.245849609375	814.093017578125	38.1002082824707	711.4364013671875	684.2691040039062	380.6753540039062	731.5458984375	659.4370727539062	38.76736450195312	888.9696044921875	726.4585571289062	42.41374588012695	872.6698608398438	683.4344482421875	39.87482070922852	785.7197875976562	884.1354370117188	39.20923614501953	712.4163208007812	
576	5.75	761.7483520507812	1052.819213867188	647.6827392578125	862.6320190429688	1050.866455078125	777.6732177734375	823.2857666015625	1117.02490234375	713.032958984375	638.3953247070312	1306.105102539062	836.2359008789062	843.541748046875	1261.97607421875	695.28662109375	800.1764526367188	1529.416137695312	729.2493896484375	672.8705444335938	1432.099975585938	813.4741821289062	805.3300170898438	1391.0419921875	633.3046264648438	872.2313232421875	1493.054565429688	797.841064453125	831.0657348632812	1498.554809570312	916.7244262695312	913.9198608398438	1381.220947265625	957.8810424804688	960.3246459960938	1169.093139648438	970.50634765625	951.0109252929688	1159.789306640625	865.3382568359375	882.4445190429688	907.095703125	966.2001342773438	971.43017578125	901.8746337890625	960.9728393554688	966.8944091796875	1052.7978515625	979.9758911132812	873.8589477539062	716.4326782226562	953.7705078125	953.2578125	808.458740234375	973.8607177734375	883.7279052734375	812.3339233398438	984.7451171875	641.7926635742188	1505.409912109375	627.0070190429688	617.6426391601562	1435.88330078125	559.1963500976562	639.5318603515625	1167.552124023438	509.7001037597656	694.5012817382812	1141.3544921875	589.4304809570312	503.24267578125	982.2592163085938	688.0252075195312	498.0466613769531	936.9608764648438	606.7090454101562	603.8685913085938	1092.072265625	520.7591552734375	447.3225708007812	828.3659057617188	777.656494140625	439.798095703125	900.1842041015625	736.1297607421875	442.4887390136719	864.35498046875	669.8012084960938	714.017822265625	1716.775146484375	840.91259765625	518.4197998046875	1658.963012695312	762.563232421875	540.919921875	1666.573608398438	858.26171875	677.4268188476562	1701.09326171875	702.0928344726562	845.4539184570312	954.795166015625	931.4957885742188	610.5140380859375	936.840576171875	639.7930908203125	573.4099731445312	977.8587646484375	757.687744140625	716.7666625976562	1006.3955078125	940.9599609375	661.2405395507812	538.7048950195312	1019.208190917969	743.535888671875	665.4172973632812	1009.041259765625	860.8051147460938	73.28604125976562	989.0650634765625	789.388427734375	316.2980041503906	1008.118286132812	648.7601318359375	52.40536117553711	1057.554077148438	686.5504760742188	58.40106964111328	1010.295776367188	771.6819458007812	62.27069473266602	1074.39404296875	887.7188110351562	79.72161102294922	908.2537231445312	650.4139404296875	504.8663635253906	735.736328125	599.0006713867188	768.7227172851562	676.6083984375	814.0848999023438	38.30572128295898	711.5050659179688	682.9336547851562	380.3056335449219	732.6172485351562	659.3330078125	38.6904182434082	889.0165405273438	726.4402465820312	42.38433074951172	872.66943359375	683.367431640625	39.84787750244141	785.6547241210938	884.1910400390625	39.56417083740234	712.4864501953125	
577	5.76	758.5345458984375	1052.325561523438	652.9445190429688	857.7039794921875	1050.364013671875	784.3403930664062	819.31298828125	1116.506225585938	719.0581665039062	632.977783203125	1305.784057617188	840.0501708984375	839.494140625	1261.505493164062	701.3516235351562	796.1717529296875	1528.990966796875	734.9798583984375	667.9054565429688	1431.778076171875	817.8438110351562	802.0831909179688	1390.75	638.9368896484375	867.5236206054688	1492.372192382812	804.2281494140625	825.2340698242188	1497.807006835938	922.7014770507812	907.3875732421875	1380.177734375	964.5369873046875	953.0748901367188	1167.938232421875	977.3980102539062	944.6341552734375	1158.67626953125	872.1512451171875	874.7333374023438	906.100830078125	972.4160766601562	963.7581787109375	900.7095336914062	967.81640625	959.3565673828125	1051.630004882812	986.8594970703125	867.095703125	714.699462890625	958.9329833984375	945.357666015625	807.3212280273438	980.5363159179688	875.6216430664062	811.1870727539062	990.5555419921875	638.7913818359375	1505.502685546875	631.1006469726562	615.1273803710938	1435.958618164062	562.9859619140625	637.1434326171875	1167.584838867188	513.5475463867188	691.4306030273438	1141.292724609375	593.7139892578125	498.9489440917969	982.9799194335938	691.099365234375	493.9903259277344	937.4620361328125	610.065185546875	601.15234375	1092.1796875	524.4605102539062	442.3863525390625	829.2666015625	780.628173828125	435.1507568359375	901.0792846679688	739.0636596679688	438.0994873046875	865.2108764648438	672.7374877929688	709.4535522460938	1716.2861328125	845.9880981445312	514.31689453125	1658.998657226562	766.3352661132812	536.1432495117188	1666.488403320312	862.1387939453125	673.7642211914062	1700.8564453125	706.9310302734375	838.16455078125	954.5067749023438	938.1597900390625	607.4307250976562	936.6131591796875	642.8242797851562	568.6156616210938	977.5382690429688	760.2252807617188	709.4822998046875	1006.280517578125	945.577880859375	649.798095703125	540.3211669921875	1024.1923828125	733.3403930664062	666.091796875	1015.161376953125	835.61767578125	69.29622650146484	1007.403198242188	771.4708862304688	314.7062683105469	1020.1884765625	620.6377563476562	54.89748001098633	1068.791259765625	660.2081298828125	59.28960418701172	1022.77294921875	743.2886962890625	61.76323318481445	1089.797241210938	865.4925537109375	73.93743133544922	927.429931640625	648.36962890625	504.3781433105469	737.05908203125	596.286376953125	768.3229370117188	679.047607421875	814.0626220703125	38.51762390136719	711.576904296875	681.56396484375	379.9395446777344	733.7134399414062	659.2344360351562	38.62202072143555	889.0547485351562	726.4078979492188	42.3682746887207	872.65576171875	683.2989501953125	39.83015823364258	785.5878295898438	884.2534790039062	39.94096374511719	712.5680541992188	
